<svg width="1280" height="720" xmlns="http://www.w3.org/2000/svg" xmlns:xlink="http://www.w3.org/1999/xlink" overflow="hidden"><defs><clipPath id="clip0"><rect x="0" y="0" width="1280" height="720"/></clipPath><linearGradient x1="640" y1="0" x2="640" y2="720" gradientUnits="userSpaceOnUse" spreadMethod="reflect" id="fill1"><stop offset="0" stop-color="#FEFEFE"/><stop offset="0.166667" stop-color="#FDFDFD"/><stop offset="0.333333" stop-color="#FDFDFD"/><stop offset="0.5" stop-color="#FCFCFC"/><stop offset="0.666667" stop-color="#FAFAFA"/><stop offset="0.833333" stop-color="#F9F9F9"/><stop offset="1" stop-color="#F7F7F7"/></linearGradient></defs><g clip-path="url(#clip0)"><rect x="0" y="0" width="1280" height="720" fill="url(#fill1)"/><rect x="56" y="174" width="1101" height="102" fill="#00B4D8" fill-opacity="0.2"/><rect x="56" y="276" width="1101" height="85" fill="#D62828" fill-opacity="0.2"/><rect x="56" y="368" width="1101" height="90" fill="#00B4D8" fill-opacity="0.2"/><rect x="56" y="458" width="1101" height="110" fill="#D62828" fill-opacity="0.2"/><rect x="56" y="568" width="1101" height="103" fill="#00B4D8" fill-opacity="0.2"/><path d="M155.166 93 1153.83 93C1155.58 93 1157 94.4177 1157 96.1665L1157 112 152 112 152 96.1665C152 94.4177 153.418 93 155.166 93Z" fill="#231942" fill-rule="evenodd"/><rect x="7" y="174" width="49" height="187" fill="#03045E"/><rect x="7" y="368" width="49" height="303" fill="#0077B6"/><rect x="56" y="174" width="82" height="102" fill="#00B4D8" fill-opacity="0.247059"/><rect x="56" y="276" width="82" height="85" fill="#D62828" fill-opacity="0.247059"/><rect x="56" y="368" width="82" height="90" fill="#00B4D8" fill-opacity="0.247059"/><rect x="56" y="458" width="82" height="110" fill="#D62828" fill-opacity="0.247059"/><rect x="56" y="568" width="82" height="103" fill="#02B2EE" fill-opacity="0.247059"/><rect x="152" y="113" width="1005" height="19" fill="#00B4D8"/><path d="M152 133 1157 133 1157 149.666C1157 151.508 1155.51 153 1153.67 153L155.334 153C153.492 153 152 151.508 152 149.666L152 133Z" fill="#D62828" fill-rule="evenodd"/><path d="M240.5 194.5 622.5 194.5 632.5 204.5 622.5 214.5 240.5 214.5 250.5 204.5Z" stroke="#FFFFFF" stroke-width="1.33333" stroke-miterlimit="8" fill="#03045E" fill-rule="evenodd"/><path d="M262.5 334.5 408.5 334.5 418.5 344.5 408.5 354.5 262.5 354.5Z" stroke="#FFFFFF" stroke-width="1.33333" stroke-miterlimit="8" fill="#D62828" fill-rule="evenodd"/><path d="M624.5 435.5 941 435.5 950.5 445 941 454.5 624.5 454.5 634 445Z" stroke="#FFFFFF" stroke-width="1.33333" stroke-miterlimit="8" fill="#03045E" fill-rule="evenodd"/><path d="M624.5 478.5 792.5 478.5 802.5 488.5 792.5 498.5 624.5 498.5Z" stroke="#FFFFFF" stroke-width="1.33333" stroke-miterlimit="8" fill="#D62828" fill-rule="evenodd"/><path d="M883.5 478.5 1021.5 478.5 1031.5 488.5 1021.5 498.5 883.5 498.5Z" stroke="#FFFFFF" stroke-width="1.33333" stroke-miterlimit="8" fill="#D62828" fill-rule="evenodd"/><path d="M913.5 589.5 1097 589.5 1106.5 599 1097 608.5 913.5 608.5 923 599Z" stroke="#FFFFFF" stroke-width="1.33333" stroke-miterlimit="8" fill="#03045E" fill-rule="evenodd"/><path d="M624.5 254.5 640.5 254.5 637.3 272.5 627.7 272.5Z" stroke="#FFFFFF" stroke-width="1.33333" stroke-miterlimit="8" fill="#03045E" fill-rule="evenodd"/><path d="M240.5 254.5 256.5 254.5 253.3 272.5 243.7 272.5Z" stroke="#FFFFFF" stroke-width="1.33333" stroke-miterlimit="8" fill="#03045E" fill-rule="evenodd"/><path d="M797.5 551.5 809.5 538.5 821.5 551.5 809.5 564.5Z" stroke="#FFFFFF" stroke-width="1.33333" stroke-miterlimit="8" fill="#D62828" fill-rule="evenodd"/><path d="M1019.5 551.5 1031.5 538.5 1043.5 551.5 1031.5 564.5Z" stroke="#FFFFFF" stroke-width="1.33333" stroke-miterlimit="8" fill="#D62828" fill-rule="evenodd"/><path d="M911.5 658C911.5 652.753 915.529 648.5 920.5 648.5 925.471 648.5 929.5 652.753 929.5 658 929.5 663.247 925.471 667.5 920.5 667.5 915.529 667.5 911.5 663.247 911.5 658Z" stroke="#FFFFFF" stroke-width="1.33333" stroke-miterlimit="8" fill="#03045E" fill-rule="evenodd"/><path d="M1044.5 658C1044.5 652.753 1048.53 648.5 1053.5 648.5 1058.47 648.5 1062.5 652.753 1062.5 658 1062.5 663.247 1058.47 667.5 1053.5 667.5 1048.53 667.5 1044.5 663.247 1044.5 658Z" stroke="#FFFFFF" stroke-width="1.33333" stroke-miterlimit="8" fill="#03045E" fill-rule="evenodd"/><text fill="#FFFFFF" font-family="Calibri,Calibri_MSFontService,sans-serif" font-weight="400" font-size="21" transform="matrix(-1.83697e-16 -1 1 -1.83697e-16 38.4244 301)">Phase 1<tspan font-size="21" x="-252" y="-4.62916e-14">Phase 2</tspan></text><text font-family="Calibri,Calibri_MSFontService,sans-serif" font-weight="400" font-size="16" transform="translate(62.4488 231)">Team 1<tspan font-size="16" x="0" y="93">Team 2</tspan><tspan font-size="16" x="0" y="187">Team 1</tspan><tspan font-size="16" x="0" y="288">Team 2</tspan><tspan font-size="16" x="0" y="394">Team 3</tspan><tspan fill="#FFFFFF" font-size="19" x="95.8048" y="-122">Q3</tspan><tspan fill="#FFFFFF" font-size="19" x="546.511" y="-122">Q4</tspan><tspan fill="#44546A" font-size="13" x="177.802" y="-41">Aug 13 </tspan><tspan fill="#44546A" font-size="13" x="218.095" y="-41">-</tspan><tspan fill="#44546A" font-size="13" x="224.988" y="-41">Oct 4</tspan><tspan fill="#FFFFFF" font-weight="700" font-size="16" x="336.436" y="-22">Task 1 Here</tspan><tspan font-weight="700" font-size="16" x="530.752" y="2">Milestone 3</tspan><tspan fill="#44546A" font-size="13" x="555.491" y="18">Oct 4</tspan><tspan font-weight="700" font-size="16" x="146.543" y="2">Milestone 1</tspan><tspan fill="#44546A" font-size="13" x="167.161" y="18">Aug 13</tspan><tspan fill="#44546A" font-size="13" x="199.968" y="99">Aug 16 </tspan><tspan fill="#44546A" font-size="13" x="240.261" y="99">-</tspan><tspan fill="#44546A" font-size="13" x="247.154" y="99">Sep 5</tspan><tspan fill="#FFFFFF" font-weight="700" font-size="16" x="240.383" y="118">Task 2 Here</tspan><tspan font-weight="700" font-size="16" x="708.079" y="286">Milestone 5</tspan><tspan fill="#44546A" font-size="13" x="729.395" y="303">Oct 28</tspan><tspan font-weight="700" font-size="16" x="929.738" y="286">Milestone 6</tspan><tspan fill="#44546A" font-size="13" x="949.718" y="303">Nov 27</tspan><tspan fill="#44546A" font-size="13" x="562.011" y="199">Oct 4 </tspan><tspan fill="#44546A" font-size="13" x="593.524" y="199">-</tspan><tspan fill="#44546A" font-size="13" x="600.417" y="199">Nov 16</tspan><tspan fill="#FFFFFF" font-weight="700" font-size="16" x="687.396" y="219">Task 3 Here</tspan><tspan fill="#44546A" font-size="13" x="562.011" y="243">Oct 4 </tspan><tspan fill="#44546A" font-size="13" x="593.524" y="243">-</tspan><tspan fill="#44546A" font-size="13" x="600.417" y="243">Oct 27</tspan><tspan fill="#FFFFFF" font-weight="700" font-size="16" x="613.509" y="263">Task 4 Here</tspan><tspan fill="#44546A" font-size="13" x="820.613" y="243">Nov 8 </tspan><tspan fill="#44546A" font-size="13" x="854.793" y="243">-</tspan><tspan fill="#44546A" font-size="13" x="861.686" y="243">Nov 27</tspan><tspan fill="#FFFFFF" font-weight="700" font-size="16" x="857.334" y="263">Task 5 Here</tspan><tspan fill="#44546A" font-size="13" x="850.167" y="353">Nov 12 </tspan><tspan fill="#44546A" font-size="13" x="891.127" y="353">-</tspan><tspan fill="#44546A" font-size="13" x="898.021" y="353">Dec 7</tspan><tspan fill="#FFFFFF" font-weight="700" font-size="16" x="909.055" y="373">Task 6 Here</tspan><tspan font-weight="700" font-size="16" x="818.909" y="396">Milestone 7</tspan><tspan fill="#44546A" font-size="13" x="838.889" y="413">Nov 12</tspan><tspan font-weight="700" font-size="16" x="951.904" y="396">Milestone 8</tspan><tspan fill="#44546A" font-size="13" x="971.884" y="413">Nov 30</tspan><tspan fill="#03045E" font-size="19" x="95.8048" y="-102">Aug</tspan><tspan fill="#03045E" font-size="19" x="324.852" y="-102">Sep</tspan><tspan fill="#FFFFFF" font-size="19" x="95.8048" y="-82">Day 1</tspan><tspan fill="#FFFFFF" font-size="19" x="221.412" y="-82">18</tspan><tspan fill="#FFFFFF" font-size="19" x="347.018" y="-82">35</tspan><tspan fill="#FFFFFF" font-size="19" x="472.625" y="-82">52</tspan><tspan fill="#FFFFFF" font-size="19" x="598.232" y="-82">69</tspan><tspan fill="#FFFFFF" font-size="19" x="723.839" y="-82">86</tspan><tspan fill="#FFFFFF" font-size="19" x="849.445" y="-82">103</tspan><tspan fill="#03045E" font-size="19" x="546.511" y="-102">Oct</tspan><tspan fill="#03045E" font-size="19" x="775.559" y="-102">Nov</tspan><tspan fill="#03045E" font-size="19" x="997.218" y="-102">Dec</tspan><tspan fill="#FFFFFF" font-size="19" x="975.052" y="-82">120</tspan></text><path d="M0 27 12 0 24 27Z" stroke="#FFFFFF" stroke-width="1.33333" stroke-miterlimit="8" fill="#0077B6" fill-rule="evenodd" transform="matrix(1 0 0 -1 191.5 100.5)"/><path d="M0 27 12 0 24 27Z" stroke="#FFFFFF" stroke-width="1.33333" stroke-miterlimit="8" fill="#0077B6" fill-rule="evenodd" transform="matrix(1 0 0 -1 1093.5 100.5)"/><path d="M0 27 12 0 24 27Z" stroke="#FFFFFF" stroke-width="1.33333" stroke-miterlimit="8" fill="#0077B6" fill-rule="evenodd" transform="matrix(1 0 0 -1 612.5 100.5)"/><path d="M406.5 344.5 418.5 331.5 430.5 344.5 418.5 357.5Z" stroke="#FFFFFF" stroke-width="1.33333" stroke-miterlimit="8" fill="#D62828" fill-rule="evenodd"/><path d="M749.5 423.5 765.5 423.5 762.3 441.5 752.7 441.5Z" stroke="#FFFFFF" stroke-width="1.33333" stroke-miterlimit="8" fill="#03045E" fill-rule="evenodd"/><text font-family="Calibri,Calibri_MSFontService,sans-serif" font-weight="700" font-size="16" transform="translate(148.906 47)">Project Initiation<tspan fill="#44546A" font-weight="400" font-size="13" x="39.8" y="19">Aug 8</tspan><tspan font-size="16" x="906.87" y="0">Project Closure</tspan><tspan fill="#44546A" font-weight="400" font-size="13" x="941.054" y="19">Dec 8</tspan><tspan font-size="16" x="433.203" y="0">Project Audit</tspan><tspan fill="#44546A" font-weight="400" font-size="13" x="461.65" y="19">Oct 4</tspan><tspan font-size="16" x="230.024" y="258">Milestone 2</tspan><tspan fill="#44546A" font-weight="400" font-size="13" x="254.597" y="277">Sep 5</tspan><tspan font-size="16" x="569.901" y="350">Milestone 4</tspan><tspan fill="#44546A" font-weight="400" font-size="13" x="591.217" y="369">Oct 21</tspan></text></g></svg>